<svg xmlns="http://www.w3.org/2000/svg" width="337.388" height="100" viewBox="0 0 337.388 100">
  <g id="Logotipo_Vertical" data-name="Logotipo Vertical" transform="translate(-248.376 -49.766)">
    <g id="Grupo_9" data-name="Grupo 9" transform="translate(248.376 49.766)">
      <path id="Caminho_15" data-name="Caminho 15" d="M342.383,63.31a5.3,5.3,0,1,1-3.607-6.578,5.305,5.305,0,0,1,3.607,6.578" transform="translate(-271.223 -51.611)" fill="#106b8e"/>
      <path id="Caminho_16" data-name="Caminho 16" d="M436.545,49.766c-29.5.605-50.708,8.687-85.657,34.748-2.222-2.626-4.445-5.455-6.667-7.879A72.322,72.322,0,0,0,321.745,60.2a7.238,7.238,0,0,1-2.664,5.427,77.59,77.59,0,0,1,17.665,15.045q3.94,4.546,7.273,9.092c-3.435,2.424-6.869,5.252-10.506,8.08-10.3,8.283-18.99,15.556-26.868,21.617-21.011-16.97-32.525-42.425-22.626-54.343,5.342-6.331,13.786-7.614,23.121-4.889A7.273,7.273,0,0,1,308.312,56c-11-1.842-20.714.616-26.313,7.1-12.121,14.344,1.01,40.606,22.828,57.98-12.939,10.177-22.543,17.5-33.466,20.677a56.072,56.072,0,0,1-20.738.922,1.939,1.939,0,1,0-.615,3.829,52.527,52.527,0,0,0,8.315.645,70.754,70.754,0,0,0,22.836-4.107c10.1-3.159,19.755-8.64,30.537-16.917,2.424,1.616,4.848,3.031,7.475,4.444,14.546,7.677,31.717,11.516,48.08,12.525l1.212,6.667s6.263-2.02,6.465-3.233l.2-3.233c13.131,0,25.455-1.616,35.152-4.848,1.413-.4,1.818-.808,1.616-1.616s-.809-.808-2.222-.2c-8.889,2.828-21.01,4.646-34.142,4.646,5.657-25.252,14.142-43.03,24.041-56.364a105.565,105.565,0,0,1,24.848-23.838c7.879-5.657,14.748-5.657,14.546-7.071-.2-1.616-.606-4.242-2.424-4.242M320.383,128.554a58.6,58.6,0,0,1-6.666-4.041c6.666-5.05,14.343-11.515,23.434-18.99l11.515-9.495c8.283,12.121,14.142,25.657,18.182,44.848-15.959-1.01-32.727-4.848-46.464-12.323M428.665,56.23c-9.091,5.253-18.384,11.111-30.506,26.869-11.919,15.96-20,35.556-23.03,51.111-4.445-16.565-10.91-31.111-19.6-43.434,37.778-29.293,55.96-33.535,72.93-35.354.606-.2.606.606.2.808" transform="translate(-248.376 -49.766)" fill="#38aa9c"/>
      <path id="Caminho_17" data-name="Caminho 17" d="M501.961,148.343l-1.483-4.408H489.889l-1.607,4.408h-8.364l12.237-30.491h6.139l12.113,30.491Zm-6.675-20.973-.124-.041-3.132,10.424h6.387Z" transform="translate(-311.647 -68.371)" fill="#38aa9c"/>
      <path id="Caminho_18" data-name="Caminho 18" d="M549.226,129.213a7.969,7.969,0,0,0-7.376-5.316c-4.862,0-8.158,4.162-8.158,8.9,0,4.945,3.379,9.065,8.2,9.065,3.09,0,5.727-1.73,7.334-5.15h8.158a16.078,16.078,0,0,1-26.783,7.417,15.473,15.473,0,0,1-4.7-11.7,15.765,15.765,0,0,1,15.7-15.369,15.481,15.481,0,0,1,10.631,3.75,14.206,14.206,0,0,1,5.15,8.405Z" transform="translate(-324.214 -68.154)" fill="#38aa9c"/>
      <path id="Caminho_19" data-name="Caminho 19" d="M611.008,148.662a18.194,18.194,0,0,1-1.9.082c-3.09,0-5.851-.906-7.21-2.39a15.705,15.705,0,0,1-8.571,2.39c-8.57,0-16.111-6.964-16.111-15.368a16.007,16.007,0,0,1,16.028-16.317c9.272,0,16.276,7.375,16.276,15.617a14.42,14.42,0,0,1-2.513,8.776,4.839,4.839,0,0,0,3.172,1.071,6.061,6.061,0,0,0,.824-.041ZM585.049,131.6a10.59,10.59,0,0,1,4.326-1.03c3.956,0,7.994,2.348,11.331,6.427a8.8,8.8,0,0,0,1.03-4.491,8.327,8.327,0,0,0-8.488-8.612c-4.161,0-7.251,2.884-8.2,7.664Zm3.462,4.656a7.871,7.871,0,0,0-2.679.494,8.411,8.411,0,0,0,7.416,5.151,7.758,7.758,0,0,0,3.5-.742c-2.8-3.585-5.11-4.9-8.24-4.9" transform="translate(-338.236 -68.154)" fill="#38aa9c"/>
      <path id="Caminho_20" data-name="Caminho 20" d="M647.9,117.852h7.788v18.665c0,3.173-.495,5.563-1.525,7.211-2.019,3.257-5.438,5.193-10.054,5.193a12.8,12.8,0,0,1-6.51-1.524c-3.585-2.1-5.315-4.945-5.315-10.838V117.852h7.788v18.583c0,3.791,1.195,5.645,3.956,5.645,2.637,0,3.873-1.319,3.873-5.6Z" transform="translate(-353.282 -68.371)" fill="#38aa9c"/>
      <path id="Caminho_21" data-name="Caminho 21" d="M692.713,148.343l-1.483-4.408H680.641l-1.607,4.408H670.67l12.237-30.491h6.14l12.114,30.491Zm-6.675-20.973-.124-.041-3.132,10.424h6.387Z" transform="translate(-363.773 -68.371)" fill="#38aa9c"/>
      <rect id="Ret창ngulo_6" data-name="Ret창ngulo 6" width="2.406" height="24.058" transform="translate(180.383 18.956)" fill="#106b8e"/>
      <path id="Caminho_22" data-name="Caminho 22" d="M523.885,99.908,509.612,78.744h-.065V99.908h-2.406V75.85h3.251l13.427,19.961h.065V75.85h2.406V99.908Z" transform="translate(-319.087 -56.894)" fill="#106b8e"/>
      <path id="Caminho_23" data-name="Caminho 23" d="M550.033,81.8a4.337,4.337,0,0,0-4.259-4.357,4.222,4.222,0,0,0-4.356,4.194c0,2.048,1.235,3.316,4.649,4.194,5.2,1.333,6.958,4.031,6.958,7.283a7.114,7.114,0,0,1-7.251,7.054,7.02,7.02,0,0,1-7.413-7.153h2.406c.163,3.089,2.113,4.975,5.006,4.975a4.781,4.781,0,0,0,4.844-4.779c0-2.6-1.723-4.065-4.877-4.975-3.445-.975-6.729-2.113-6.729-6.5a6.717,6.717,0,0,1,13.426.065Z" transform="translate(-327.618 -56.735)" fill="#106b8e"/>
      <path id="Caminho_24" data-name="Caminho 24" d="M565.94,99.908V78.028h-5.526V75.85H573.84v2.178h-5.495v21.88Z" transform="translate(-333.644 -56.894)" fill="#106b8e"/>
      <rect id="Ret창ngulo_7" data-name="Ret창ngulo 7" width="2.406" height="24.058" transform="translate(243.25 18.956)" fill="#106b8e"/>
      <path id="Caminho_25" data-name="Caminho 25" d="M596.087,99.908V78.028h-5.526V75.85h13.426v2.178h-5.495v21.88Z" transform="translate(-341.882 -56.894)" fill="#106b8e"/>
      <path id="Caminho_26" data-name="Caminho 26" d="M627.173,75.85h2.406V91.1c0,6.08-3.544,9.233-8.192,9.233-4.585,0-8.193-3.056-8.193-9.3V75.85H615.6V91.163c0,4.844,2.6,6.989,5.788,6.989,2.763,0,5.786-1.723,5.786-6.957Z" transform="translate(-348.066 -56.894)" fill="#106b8e"/>
      <path id="Caminho_27" data-name="Caminho 27" d="M645.423,99.908V78.028H639.9V75.85h13.426v2.178h-5.495v21.88Z" transform="translate(-355.364 -56.894)" fill="#106b8e"/>
      <path id="Caminho_28" data-name="Caminho 28" d="M673.81,100.171c-6.568,0-12.711-5.331-12.711-12.321a12.733,12.733,0,1,1,12.711,12.321m-.033-22.724a10.274,10.274,0,1,0,10.371,10.306,10.428,10.428,0,0,0-10.371-10.306" transform="translate(-361.157 -56.735)" fill="#106b8e"/>
    </g>
  </g>
</svg>
